<svg width="100" height="100" viewBox="0 0 100 100" fill="none" xmlns="http://www.w3.org/2000/svg">
<path d="M43.49 51.2867C43.4866 51.29 43.4833 51.2933 43.4833 51.2967C40.8366 54.62 39.4 58.8533 34.77 60.1067C23.82 62.9833 17.26 48.7767 26.3567 42.3267C34.12 36.8967 47.51 39.58 52.2666 47.89C52.2033 47.8167 48.9666 44.1867 43.49 51.2867Z" fill="#D34646"/>
<path d="M49.1667 43.5433C49.1633 43.54 49.16 43.5367 49.1567 43.5367C45.8333 40.89 41.6 39.4533 40.3467 34.8233C37.47 23.8733 51.6767 17.3133 58.1267 26.41C63.5567 34.1733 60.8733 47.5633 52.5633 52.32C52.6367 52.2567 56.27 49.02 49.1667 43.5433Z" fill="#FFE150"/>
<path d="M56.97 49.2133C56.9733 49.21 56.9767 49.2067 56.9767 49.2033C59.6234 45.88 61.06 41.6467 65.69 40.3933C76.64 37.5167 83.2 51.7233 74.1033 58.1733C66.34 63.6033 52.95 60.92 48.1934 52.61C48.2567 52.6867 51.4934 56.3167 56.97 49.2133Z" fill="#479960"/>
<path d="M51.29 56.9633C51.2933 56.9667 51.2967 56.97 51.3 56.97C54.6233 59.6167 58.8567 61.0533 60.11 65.6833C62.9867 76.6334 48.78 83.1933 42.33 74.0967C36.9 66.3333 39.5834 52.9433 47.8934 48.1867C47.82 48.25 44.1867 51.4867 51.29 56.9633Z" fill="#43439B"/>
<path d="M50.35 93.7667C44.4933 93.7667 38.81 92.62 33.4633 90.3567C30.8933 89.27 28.4133 87.9233 26.0933 86.3567C23.7967 84.8033 21.6367 83.0233 19.6733 81.06C17.71 79.0967 15.9267 76.9367 14.3767 74.64C12.81 72.32 11.4633 69.84 10.3767 67.27C8.11334 61.92 6.96667 56.24 6.96667 50.3833C6.96667 44.5267 8.11334 38.8433 10.3767 33.4967C11.4633 30.9267 12.81 28.4467 14.3767 26.1267C15.93 23.83 17.71 21.67 19.6733 19.7067C21.6367 17.7433 23.7967 15.96 26.0933 14.41C28.4133 12.8433 30.8933 11.4967 33.4633 10.41C38.8133 8.14667 44.4933 7 50.35 7C56.2067 7 61.89 8.14667 67.2367 10.41C69.8067 11.4967 72.2867 12.8433 74.6067 14.41C76.9033 15.9633 79.0633 17.7433 81.0267 19.7067C82.99 21.67 84.7733 23.83 86.3233 26.1267C87.89 28.4467 89.2367 30.9267 90.3233 33.4967C92.5867 38.8467 93.7333 44.5267 93.7333 50.3833C93.7333 56.24 92.5867 61.9233 90.3233 67.27C89.2367 69.84 87.89 72.32 86.3233 74.64C84.77 76.9367 82.99 79.0967 81.0267 81.06C79.0633 83.0233 76.9033 84.8067 74.6067 86.3567C72.2867 87.9233 69.8067 89.27 67.2367 90.3567C61.8867 92.62 56.2067 93.7667 50.35 93.7667ZM50.35 7.49667C26.7033 7.49667 7.46667 26.7333 7.46667 50.38C7.46667 74.0267 26.7033 93.2667 50.35 93.2667C73.9967 93.2667 93.2333 74.03 93.2333 50.3833C93.2333 26.7367 73.9967 7.49667 50.35 7.49667Z" fill="#DDA461"/>
</svg>
