<svg width="37" height="37" viewBox="0 0 37 37" fill="none" xmlns="http://www.w3.org/2000/svg">
<path d="M18.5 0C8.27965 0 0 8.28084 0 18.5C0 28.7192 8.28084 37 18.5 37C28.7204 37 37 28.7192 37 18.5C37 8.28084 28.7192 0 18.5 0ZM27.5865 12.6743L24.5501 26.9825C24.3257 27.9971 23.7218 28.2429 22.8791 27.7655L18.2541 24.3567L16.0234 26.5051C15.7775 26.751 15.5686 26.9599 15.0912 26.9599L15.4195 22.2525L23.9903 14.5088C24.3639 14.1805 23.908 13.9944 23.415 14.3226L12.8223 20.9909L8.25697 19.5658C7.26513 19.2531 7.24245 18.574 8.46584 18.0966L26.3022 11.2182C27.1306 10.9198 27.8538 11.4199 27.5853 12.6731L27.5865 12.6743Z" fill="#3C3C3C"/>
</svg>
