<svg width="37" height="37" viewBox="0 0 37 37" fill="none" xmlns="http://www.w3.org/2000/svg">
<path d="M2.60074 2.60074C0 5.20164 0 9.38809 0 17.76V19.24C0 27.612 0 31.7984 2.60074 34.3992C5.20164 37 9.38809 37 17.76 37H19.24C27.612 37 31.7984 37 34.3992 34.3992C37 31.7984 37 27.612 37 19.24V17.76C37 9.38801 37 5.20156 34.3992 2.60074C31.7984 2.45041e-07 27.612 0 19.24 0H17.76C9.38801 0 5.20156 2.45041e-07 2.60074 2.60074ZM6.24375 11.2543H10.4679C10.6067 18.3151 13.7208 21.3059 16.1875 21.9226V11.2542H20.165V17.3438C22.6008 17.0817 25.16 14.3067 26.0233 11.2542H30.0008C29.6754 12.8373 29.0269 14.3362 28.0958 15.6572C27.1647 16.9783 25.9711 18.093 24.5896 18.9317C26.1321 19.6975 27.4945 20.7819 28.5868 22.1134C29.6791 23.4449 30.4763 24.993 30.9258 26.6554H26.5475C26.1441 25.2114 25.3231 23.9187 24.1876 22.9395C23.0521 21.9604 21.6527 21.3384 20.165 21.1517V26.6554H19.6871C11.2542 26.6554 6.44419 20.8743 6.24375 11.2543Z" fill="#3C3C3C"/>
</svg>
